# xmcd
#
# Track frame offsets:
#	150
#	14187
#	27595
#	40002
#	54627
#	67732
#	82312
#	96398
#	109473
#	121645
#	135524
#	150067
#	164761
#	188812
#	202787
#	217608
#	232071
#	247454
#	260498
#	273595
#
# Disc length: 3813
#
# Revision: 2
# Processed by: cddbd v1.5.1PL0 Copyright (c) Steve Scherf et al.
# Submitted via: WhereIsIt 3.51
# Normalized: r1:DSETVAR1,TDELIM( - )
#
DISCID=210ee314
DTITLE=Various Artist - Nothing But the Blues: Disc 03
DYEAR=1900
DGENRE=Blues
TTITLE0=Blues In The Dark - Count Basie and His Orchestra
TTITLE1=Sent For You Yesterday - Count Basie and His Orchestra
TTITLE2=He Ain't Got Rhythm - Benny Goodman and His Orchestra
TTITLE3=Good Morning Blues - Count Basie and His Orchestra
TTITLE4=Hootie Blues - Jay McShann And His Orchestra
TTITLE5=How Long, How Long Blues - Varsity Seven/Joe Turner
TTITLE6=627 Stomp - Pete Johnson And His Band
TTITLE7=St. Louis Blues - Billie Holiday
TTITLE8=Do You Wanna Jump, Children? - Count Basie and His Orchestra
TTITLE9=Lazy Lady Blues - Count Basie and His Orchestra
TTITLE10=The Blues I Like To Hear - Count Basie and His Orchestra
TTITLE11=Evil Blues - Count Basie and His Orchestra
TTITLE12=Blues In The Night - Jimmie Lunceford
TTITLE13=The Jumpin' Blues - Jay McShann
TTITLE14=Back O'Town Blues - Louis Armstrong
TTITLE15=Don't You Miss Your Baby? - Count Basie and His Orchestra
TTITLE16=Goin' To Chicago Blues - Count Basie and His Orchestra
TTITLE17=Now Will You Be Good? - Count Basie and His Orchestra
TTITLE18=Jimmy's Blues - Count Basie and His Orchestra
TTITLE19=Swinging The Blues - Count Basie
EXTD=
EXTT0=
EXTT1=
EXTT2=
EXTT3=
EXTT4=
EXTT5=
EXTT6=
EXTT7=
EXTT8=
EXTT9=
EXTT10=
EXTT11=
EXTT12=
EXTT13=
EXTT14=
EXTT15=
EXTT16=
EXTT17=
EXTT18=
EXTT19=
PLAYORDER=
